<svg xmlns="http://www.w3.org/2000/svg" viewBox="0 0 3000 1831" preserveAspectRatio="xMidYMid" style="shape-rendering: auto; display: block; background: transparent;" width="3000" height="1831" xmlns:xlink="http://www.w3.org/1999/xlink"><g><defs>
  <filter height="333.56" width="3.98" y="-1.99" x="-1.99" filterUnits="userSpaceOnUse" id="f-77aar7t873j">
    <feGaussianBlur result="blur1" stdDeviation="1"></feGaussianBlur>
    <feMorphology result="dilate" in="SourceGraphic" radius="0.25" operator="dilate"></feMorphology>
    <feComponentTransfer result="dark" in="dilate">
    <feFuncR slope="0.33" type="linear"></feFuncR>
    <feFuncG slope="0.33" type="linear"></feFuncG>
    <feFuncB slope="0.33" type="linear"></feFuncB>
    </feComponentTransfer>
    <feGaussianBlur result="blur2" in="dark" stdDeviation="0.50"></feGaussianBlur>
    <feMerge>
      <feMergeNode in="blur1"></feMergeNode>
      <feMergeNode in="blur2"></feMergeNode>
      <feMergeNode in="SourceGraphic"></feMergeNode>
    </feMerge>
  </filter>
</defs><path stroke-width="0.6" stroke="#191919" d="M96.77 0L96.77 1831"></path>
<path filter="url(#f-77aar7t873j)" fill="#000000" d="M0 0L-0.99 329.58 A0.99 0.99 0 0 0 0.99 329.58 Z">
<animateTransform begin="-11.59s" keyTimes="0;1" values="96.77 -333.56;96.77 1831" repeatCount="indefinite" dur="33.33s" type="translate" attributeName="transform"></animateTransform>
</path><path stroke-width="0.6" stroke="#191919" d="M193.55 0L193.55 1831"></path>
<path filter="url(#f-77aar7t873j)" fill="#fdf1b4" d="M0 0L-0.99 329.58 A0.99 0.99 0 0 0 0.99 329.58 Z">
<animateTransform begin="-22.93s" keyTimes="0;1" values="193.55 -333.56;193.55 1831" repeatCount="indefinite" dur="33.33s" type="translate" attributeName="transform"></animateTransform>
</path><path stroke-width="0.6" stroke="#191919" d="M290.32 0L290.32 1831"></path>
<path filter="url(#f-77aar7t873j)" fill="#f56b3d" d="M0 0L-0.99 329.58 A0.99 0.99 0 0 0 0.99 329.58 Z">
<animateTransform begin="-23.26s" keyTimes="0;1" values="290.32 -333.56;290.32 1831" repeatCount="indefinite" dur="50s" type="translate" attributeName="transform"></animateTransform>
</path><path stroke-width="0.6" stroke="#191919" d="M387.10 0L387.10 1831"></path>
<path filter="url(#f-77aar7t873j)" fill="#fdf1b4" d="M0 0L-0.99 329.58 A0.99 0.99 0 0 0 0.99 329.58 Z">
<animateTransform begin="-28s" keyTimes="0;1" values="387.10 -333.56;387.10 1831" repeatCount="indefinite" dur="33.33s" type="translate" attributeName="transform"></animateTransform>
</path><path stroke-width="0.6" stroke="#191919" d="M483.87 0L483.87 1831"></path>
<path filter="url(#f-77aar7t873j)" fill="#628100" d="M0 0L-0.99 329.58 A0.99 0.99 0 0 0 0.99 329.58 Z">
<animateTransform begin="-23.49s" keyTimes="0;1" values="483.87 -333.56;483.87 1831" repeatCount="indefinite" dur="33.33s" type="translate" attributeName="transform"></animateTransform>
</path><path stroke-width="0.6" stroke="#191919" d="M580.65 0L580.65 1831"></path>
<path filter="url(#f-77aar7t873j)" fill="#fdf1b4" d="M0 0L-0.99 329.58 A0.99 0.99 0 0 0 0.99 329.58 Z">
<animateTransform begin="-9.58s" keyTimes="0;1" values="580.65 -333.56;580.65 1831" repeatCount="indefinite" dur="50s" type="translate" attributeName="transform"></animateTransform>
</path><path stroke-width="0.6" stroke="#191919" d="M677.42 0L677.42 1831"></path>
<path filter="url(#f-77aar7t873j)" fill="#95fb62" d="M0 0L-0.99 329.58 A0.99 0.99 0 0 0 0.99 329.58 Z">
<animateTransform begin="-9.81s" keyTimes="0;1" values="677.42 -333.56;677.42 1831" repeatCount="indefinite" dur="33.33s" type="translate" attributeName="transform"></animateTransform>
</path><path stroke-width="0.6" stroke="#191919" d="M774.19 0L774.19 1831"></path>
<path filter="url(#f-77aar7t873j)" fill="#f56b3d" d="M0 0L-0.99 329.58 A0.99 0.99 0 0 0 0.99 329.58 Z">
<animateTransform begin="-11.13s" keyTimes="0;1" values="774.19 -333.56;774.19 1831" repeatCount="indefinite" dur="50s" type="translate" attributeName="transform"></animateTransform>
</path><path stroke-width="0.6" stroke="#191919" d="M870.97 0L870.97 1831"></path>
<path filter="url(#f-77aar7t873j)" fill="#f56b3d" d="M0 0L-0.99 329.58 A0.99 0.99 0 0 0 0.99 329.58 Z">
<animateTransform begin="-23.07s" keyTimes="0;1" values="870.97 -333.56;870.97 1831" repeatCount="indefinite" dur="33.33s" type="translate" attributeName="transform"></animateTransform>
</path><path stroke-width="0.6" stroke="#191919" d="M967.74 0L967.74 1831"></path>
<path filter="url(#f-77aar7t873j)" fill="#fdf1b4" d="M0 0L-0.99 329.58 A0.99 0.99 0 0 0 0.99 329.58 Z">
<animateTransform begin="-15.12s" keyTimes="0;1" values="967.74 -333.56;967.74 1831" repeatCount="indefinite" dur="50s" type="translate" attributeName="transform"></animateTransform>
</path><path stroke-width="0.6" stroke="#191919" d="M1064.52 0L1064.52 1831"></path>
<path filter="url(#f-77aar7t873j)" fill="#fdf1b4" d="M0 0L-0.99 329.58 A0.99 0.99 0 0 0 0.99 329.58 Z">
<animateTransform begin="-9.28s" keyTimes="0;1" values="1064.52 -333.56;1064.52 1831" repeatCount="indefinite" dur="33.33s" type="translate" attributeName="transform"></animateTransform>
</path><path stroke-width="0.6" stroke="#191919" d="M1161.29 0L1161.29 1831"></path>
<path filter="url(#f-77aar7t873j)" fill="#000000" d="M0 0L-0.99 329.58 A0.99 0.99 0 0 0 0.99 329.58 Z">
<animateTransform begin="-26.09s" keyTimes="0;1" values="1161.29 -333.56;1161.29 1831" repeatCount="indefinite" dur="33.33s" type="translate" attributeName="transform"></animateTransform>
</path><path stroke-width="0.6" stroke="#191919" d="M1258.06 0L1258.06 1831"></path>
<path filter="url(#f-77aar7t873j)" fill="#95fb62" d="M0 0L-0.99 329.58 A0.99 0.99 0 0 0 0.99 329.58 Z">
<animateTransform begin="-38.24s" keyTimes="0;1" values="1258.06 -333.56;1258.06 1831" repeatCount="indefinite" dur="50s" type="translate" attributeName="transform"></animateTransform>
</path><path stroke-width="0.6" stroke="#191919" d="M1354.84 0L1354.84 1831"></path>
<path filter="url(#f-77aar7t873j)" fill="#f56b3d" d="M0 0L-0.99 329.58 A0.99 0.99 0 0 0 0.99 329.58 Z">
<animateTransform begin="-18.87s" keyTimes="0;1" values="1354.84 -333.56;1354.84 1831" repeatCount="indefinite" dur="33.33s" type="translate" attributeName="transform"></animateTransform>
</path><path stroke-width="0.6" stroke="#191919" d="M1451.61 0L1451.61 1831"></path>
<path filter="url(#f-77aar7t873j)" fill="#f56b3d" d="M0 0L-0.99 329.58 A0.99 0.99 0 0 0 0.99 329.58 Z">
<animateTransform begin="-14.05s" keyTimes="0;1" values="1451.61 -333.56;1451.61 1831" repeatCount="indefinite" dur="50s" type="translate" attributeName="transform"></animateTransform>
</path><path stroke-width="0.6" stroke="#191919" d="M1548.39 0L1548.39 1831"></path>
<path filter="url(#f-77aar7t873j)" fill="#95fb62" d="M0 0L-0.99 329.58 A0.99 0.99 0 0 0 0.99 329.58 Z">
<animateTransform begin="-46.75s" keyTimes="0;1" values="1548.39 -333.56;1548.39 1831" repeatCount="indefinite" dur="50s" type="translate" attributeName="transform"></animateTransform>
</path><path stroke-width="0.6" stroke="#191919" d="M1645.16 0L1645.16 1831"></path>
<path filter="url(#f-77aar7t873j)" fill="#f56b3d" d="M0 0L-0.99 329.58 A0.99 0.99 0 0 0 0.99 329.58 Z">
<animateTransform begin="-12.83s" keyTimes="0;1" values="1645.16 -333.56;1645.16 1831" repeatCount="indefinite" dur="100s" type="translate" attributeName="transform"></animateTransform>
</path><path stroke-width="0.6" stroke="#191919" d="M1741.94 0L1741.94 1831"></path>
<path filter="url(#f-77aar7t873j)" fill="#f56b3d" d="M0 0L-0.99 329.58 A0.99 0.99 0 0 0 0.99 329.58 Z">
<animateTransform begin="-5.15s" keyTimes="0;1" values="1741.94 -333.56;1741.94 1831" repeatCount="indefinite" dur="100s" type="translate" attributeName="transform"></animateTransform>
</path><path stroke-width="0.6" stroke="#191919" d="M1838.71 0L1838.71 1831"></path>
<path filter="url(#f-77aar7t873j)" fill="#95fb62" d="M0 0L-0.99 329.58 A0.99 0.99 0 0 0 0.99 329.58 Z">
<animateTransform begin="-35.21s" keyTimes="0;1" values="1838.71 -333.56;1838.71 1831" repeatCount="indefinite" dur="50s" type="translate" attributeName="transform"></animateTransform>
</path><path stroke-width="0.6" stroke="#191919" d="M1935.48 0L1935.48 1831"></path>
<path filter="url(#f-77aar7t873j)" fill="#f56b3d" d="M0 0L-0.99 329.58 A0.99 0.99 0 0 0 0.99 329.58 Z">
<animateTransform begin="-7.31s" keyTimes="0;1" values="1935.48 -333.56;1935.48 1831" repeatCount="indefinite" dur="33.33s" type="translate" attributeName="transform"></animateTransform>
</path><path stroke-width="0.6" stroke="#191919" d="M2032.26 0L2032.26 1831"></path>
<path filter="url(#f-77aar7t873j)" fill="#fdf1b4" d="M0 0L-0.99 329.58 A0.99 0.99 0 0 0 0.99 329.58 Z">
<animateTransform begin="-28.62s" keyTimes="0;1" values="2032.26 -333.56;2032.26 1831" repeatCount="indefinite" dur="33.33s" type="translate" attributeName="transform"></animateTransform>
</path><path stroke-width="0.6" stroke="#191919" d="M2129.03 0L2129.03 1831"></path>
<path filter="url(#f-77aar7t873j)" fill="#000000" d="M0 0L-0.99 329.58 A0.99 0.99 0 0 0 0.99 329.58 Z">
<animateTransform begin="-41.90s" keyTimes="0;1" values="2129.03 -333.56;2129.03 1831" repeatCount="indefinite" dur="50s" type="translate" attributeName="transform"></animateTransform>
</path><path stroke-width="0.6" stroke="#191919" d="M2225.81 0L2225.81 1831"></path>
<path filter="url(#f-77aar7t873j)" fill="#f56b3d" d="M0 0L-0.99 329.58 A0.99 0.99 0 0 0 0.99 329.58 Z">
<animateTransform begin="-15.99s" keyTimes="0;1" values="2225.81 -333.56;2225.81 1831" repeatCount="indefinite" dur="50s" type="translate" attributeName="transform"></animateTransform>
</path><path stroke-width="0.6" stroke="#191919" d="M2322.58 0L2322.58 1831"></path>
<path filter="url(#f-77aar7t873j)" fill="#000000" d="M0 0L-0.99 329.58 A0.99 0.99 0 0 0 0.99 329.58 Z">
<animateTransform begin="-27.44s" keyTimes="0;1" values="2322.58 -333.56;2322.58 1831" repeatCount="indefinite" dur="33.33s" type="translate" attributeName="transform"></animateTransform>
</path><path stroke-width="0.6" stroke="#191919" d="M2419.35 0L2419.35 1831"></path>
<path filter="url(#f-77aar7t873j)" fill="#fdf1b4" d="M0 0L-0.99 329.58 A0.99 0.99 0 0 0 0.99 329.58 Z">
<animateTransform begin="-36.35s" keyTimes="0;1" values="2419.35 -333.56;2419.35 1831" repeatCount="indefinite" dur="100s" type="translate" attributeName="transform"></animateTransform>
</path><path stroke-width="0.6" stroke="#191919" d="M2516.13 0L2516.13 1831"></path>
<path filter="url(#f-77aar7t873j)" fill="#95fb62" d="M0 0L-0.99 329.58 A0.99 0.99 0 0 0 0.99 329.58 Z">
<animateTransform begin="-13s" keyTimes="0;1" values="2516.13 -333.56;2516.13 1831" repeatCount="indefinite" dur="50s" type="translate" attributeName="transform"></animateTransform>
</path><path stroke-width="0.6" stroke="#191919" d="M2612.90 0L2612.90 1831"></path>
<path filter="url(#f-77aar7t873j)" fill="#f56b3d" d="M0 0L-0.99 329.58 A0.99 0.99 0 0 0 0.99 329.58 Z">
<animateTransform begin="-76.65s" keyTimes="0;1" values="2612.90 -333.56;2612.90 1831" repeatCount="indefinite" dur="100s" type="translate" attributeName="transform"></animateTransform>
</path><path stroke-width="0.6" stroke="#191919" d="M2709.68 0L2709.68 1831"></path>
<path filter="url(#f-77aar7t873j)" fill="#000000" d="M0 0L-0.99 329.58 A0.99 0.99 0 0 0 0.99 329.58 Z">
<animateTransform begin="-19.15s" keyTimes="0;1" values="2709.68 -333.56;2709.68 1831" repeatCount="indefinite" dur="100s" type="translate" attributeName="transform"></animateTransform>
</path><path stroke-width="0.6" stroke="#191919" d="M2806.45 0L2806.45 1831"></path>
<path filter="url(#f-77aar7t873j)" fill="#f56b3d" d="M0 0L-0.99 329.58 A0.99 0.99 0 0 0 0.99 329.58 Z">
<animateTransform begin="-29.82s" keyTimes="0;1" values="2806.45 -333.56;2806.45 1831" repeatCount="indefinite" dur="33.33s" type="translate" attributeName="transform"></animateTransform>
</path><path stroke-width="0.6" stroke="#191919" d="M2903.23 0L2903.23 1831"></path>
<path filter="url(#f-77aar7t873j)" fill="#000000" d="M0 0L-0.99 329.58 A0.99 0.99 0 0 0 0.99 329.58 Z">
<animateTransform begin="-26.55s" keyTimes="0;1" values="2903.23 -333.56;2903.23 1831" repeatCount="indefinite" dur="33.33s" type="translate" attributeName="transform"></animateTransform>
</path><g></g></g><!-- [ldio] generated by https://loading.io --></svg>